<svg version="1.1" xmlns="http://www.w3.org/2000/svg" xmlns:xlink="http://www.w3.org/1999/xlink" preserveAspectRatio="xMidYMid meet" viewBox="0 0 640 640" width="48" height="48"><defs><path d="M299.41 20L609.7 330.3L542.06 397.94L231.77 87.64L299.41 20Z" id="gXrjBc9Mi"></path><path d="M203.44 115.21L515.51 423.72L449.15 490.85L137.08 182.34L203.44 115.21Z" id="b1aLjTeoq8"></path><path d="M109.16 208.54L421.23 517.06L353.98 585.08L41.91 276.57L109.16 208.54Z" id="a19Ho2gquj"></path><path d="M299.28 19.88L609.58 330.17L597.94 341.81L287.64 31.52L299.28 19.88Z" id="adi6kWjid"></path><path d="M294.25 24.86L305.47 36.07L242.83 98.7L231.62 87.49L294.25 24.86Z" id="aRcs1grhh"></path></defs><g><g><g><g><filter id="shadow13419423" x="-577075.23" y="-577287" width="1732143.94" height="1730991.94" filterUnits="userSpaceOnUse" primitiveUnits="userSpaceOnUse"><feFlood></feFlood><feComposite in2="SourceAlpha" operator="in"></feComposite><feGaussianBlur stdDeviation="7.07"></feGaussianBlur><feOffset dx="577152" dy="576000" result="afterOffset"></feOffset><feFlood flood-color="#ff3030" flood-opacity="1"></feFlood><feComposite in2="afterOffset" operator="in"></feComposite><feMorphology operator="dilate" radius="50"></feMorphology><feComposite in2="SourceAlpha" operator="out"></feComposite></filter><path d="M299.41 20L609.7 330.3L542.06 397.94L231.77 87.64L299.41 20Z" id="bLaXVBY8I" fill="white" fill-opacity="1" filter="url(#shadow13419423)"></path></g><use xlink:href="#gXrjBc9Mi" opacity="1" fill="#ffffff" fill-opacity="1"></use></g><g><use xlink:href="#b1aLjTeoq8" opacity="1" fill="#f6c90e" fill-opacity="1"></use></g><g><use xlink:href="#a19Ho2gquj" opacity="1" fill="#f64e8b" fill-opacity="1"></use></g><g><g><filter id="shadow4347895" x="-577019.36" y="-577287.12" width="1732087.94" height="1730935.94" filterUnits="userSpaceOnUse" primitiveUnits="userSpaceOnUse"><feFlood></feFlood><feComposite in2="SourceAlpha" operator="in"></feComposite><feGaussianBlur stdDeviation="7.07"></feGaussianBlur><feOffset dx="577152" dy="576000" result="afterOffset"></feOffset><feFlood flood-color="#ff3030" flood-opacity="1"></feFlood><feComposite in2="afterOffset" operator="in"></feComposite><feMorphology operator="dilate" radius="50"></feMorphology><feComposite in2="SourceAlpha" operator="out"></feComposite></filter><path d="M299.28 19.88L609.58 330.17L597.94 341.81L287.64 31.52L299.28 19.88Z" id="c14HWProxW" fill="white" fill-opacity="1" filter="url(#shadow4347895)"></path></g><use xlink:href="#adi6kWjid" opacity="1" fill="#d8d8d8" fill-opacity="1"></use></g><g><g><filter id="shadow8393417" x="-577075.38" y="-577282.14" width="1731839.85" height="1730687.85" filterUnits="userSpaceOnUse" primitiveUnits="userSpaceOnUse"><feFlood></feFlood><feComposite in2="SourceAlpha" operator="in"></feComposite><feGaussianBlur stdDeviation="7.07"></feGaussianBlur><feOffset dx="577152" dy="576000" result="afterOffset"></feOffset><feFlood flood-color="#ff3030" flood-opacity="1"></feFlood><feComposite in2="afterOffset" operator="in"></feComposite><feMorphology operator="dilate" radius="50"></feMorphology><feComposite in2="SourceAlpha" operator="out"></feComposite></filter><path d="M294.25 24.86L305.47 36.07L242.83 98.7L231.62 87.49L294.25 24.86Z" id="ap4eIXlC5" fill="white" fill-opacity="1" filter="url(#shadow8393417)"></path></g><use xlink:href="#aRcs1grhh" opacity="1" fill="#d8d8d8" fill-opacity="1"></use></g></g></g></svg>